<?xml version="1.0" encoding="utf-8" standalone="no"?>
<!DOCTYPE svg PUBLIC "-//W3C//DTD SVG 1.1//EN"
  "http://www.w3.org/Graphics/SVG/1.1/DTD/svg11.dtd">
<!-- Created with matplotlib (https://matplotlib.org/) -->
<svg height="648pt" version="1.1" viewBox="0 0 648 648" width="648pt" xmlns="http://www.w3.org/2000/svg" xmlns:xlink="http://www.w3.org/1999/xlink">
 <metadata>
  <rdf:RDF xmlns:cc="http://creativecommons.org/ns#" xmlns:dc="http://purl.org/dc/elements/1.1/" xmlns:rdf="http://www.w3.org/1999/02/22-rdf-syntax-ns#">
   <cc:Work>
    <dc:type rdf:resource="http://purl.org/dc/dcmitype/StillImage"/>
    <dc:date>2021-11-19T11:04:51.774363</dc:date>
    <dc:format>image/svg+xml</dc:format>
    <dc:creator>
     <cc:Agent>
      <dc:title>Matplotlib v3.3.2, https://matplotlib.org/</dc:title>
     </cc:Agent>
    </dc:creator>
   </cc:Work>
  </rdf:RDF>
 </metadata>
 <defs>
  <style type="text/css">*{stroke-linecap:butt;stroke-linejoin:round;}</style>
 </defs>
 <g id="figure_1">
  <g id="patch_1">
   <path d="M 0 648 
L 648 648 
L 648 0 
L 0 0 
z
" style="fill:#ffffff;"/>
  </g>
  <g id="axes_1">
   <g id="patch_2">
    <path clip-path="url(#pd31690bcad)" d="M 329.710379 290.196903 
C 297.181857 262.902232 259.20356 244.79913 224.139766 239.874595 
C 189.075973 234.950059 159.789488 243.606157 142.730318 263.936484 
C 125.671149 284.26681 122.232101 314.611484 133.170585 348.287443 
C 144.10907 381.963402 168.532007 416.221153 201.06053 443.515824 
C 233.589052 470.810495 271.56735 488.913597 306.631143 493.838133 
C 341.694936 498.762668 370.981421 490.10657 388.040591 469.776243 
C 405.09976 449.445917 408.538808 419.101243 397.600324 385.425284 
C 386.661839 351.749326 362.238902 317.491575 329.710379 290.196903 
z
" style="fill:#5cbf61;fill-opacity:0.5;stroke:#5cbf61;stroke-linejoin:miter;stroke-opacity:0.75;"/>
   </g>
   <g id="patch_3">
    <path clip-path="url(#pd31690bcad)" d="M 374.186743 245.72054 
C 341.658221 218.425869 303.679923 200.322766 268.61613 195.398231 
C 233.552337 190.473696 204.265851 199.129794 187.206682 219.46012 
C 170.147512 239.790447 166.708465 270.135121 177.646949 303.811079 
C 188.585433 337.487038 213.008371 371.744789 245.536893 399.03946 
C 278.065416 426.334131 316.043713 444.437234 351.107506 449.361769 
C 386.1713 454.286304 415.457785 445.630206 432.516955 425.29988 
C 449.576124 404.969553 453.015172 374.624879 442.076687 340.948921 
C 431.138203 307.272962 406.715265 273.015211 374.186743 245.72054 
z
" style="fill:#599cd4;fill-opacity:0.5;stroke:#599cd4;stroke-linejoin:miter;stroke-opacity:0.75;"/>
   </g>
   <g id="patch_4">
    <path clip-path="url(#pd31690bcad)" d="M 415.994525 399.03946 
C 448.523047 371.744789 472.945985 337.487038 483.884469 303.811079 
C 494.822954 270.135121 491.383906 239.790447 474.324736 219.46012 
C 457.265567 199.129794 427.979081 190.473696 392.915288 195.398231 
C 357.851495 200.322766 319.873198 218.425869 287.344675 245.72054 
C 254.816153 273.015211 230.393215 307.272962 219.454731 340.948921 
C 208.516246 374.624879 211.955294 404.969553 229.014464 425.29988 
C 246.073633 445.630206 275.360119 454.286304 310.423912 449.361769 
C 345.487705 444.437234 383.466002 426.334131 415.994525 399.03946 
z
" style="fill:#f5ed57;fill-opacity:0.6;stroke:#f5ed57;stroke-linejoin:miter;stroke-opacity:0.8;"/>
   </g>
   <g id="patch_5">
    <path clip-path="url(#pd31690bcad)" d="M 460.470888 443.515824 
C 492.999411 416.221153 517.422348 381.963402 528.360833 348.287443 
C 539.299317 314.611484 535.860269 284.26681 518.8011 263.936484 
C 501.741931 243.606157 472.455445 234.950059 437.391652 239.874595 
C 402.327859 244.79913 364.349561 262.902232 331.821039 290.196903 
C 299.292516 317.491575 274.869579 351.749326 263.931094 385.425284 
C 252.99261 419.101243 256.431658 449.445917 273.490827 469.776243 
C 290.549997 490.10657 319.836482 498.762668 354.900275 493.838133 
C 389.964069 488.913597 427.942366 470.810495 460.470888 443.515824 
z
" style="fill:#f25961;fill-opacity:0.4;stroke:#f25961;stroke-linejoin:miter;stroke-opacity:0.7;"/>
   </g>
   <g id="matplotlib.axis_1"/>
   <g id="matplotlib.axis_2"/>
   <g id="text_1">
    <!-- 0 -->
    <g transform="translate(483.712273 361.979841)scale(0.16 -0.16)">
     <defs>
      <path d="M 47.21875 31.734375 
Q 47.21875 24.46875 46.0625 18.453125 
Q 44.921875 12.453125 42.25 8.125 
Q 39.59375 3.8125 35.296875 1.4375 
Q 31 -0.921875 24.703125 -0.921875 
Q 18.75 -0.921875 14.671875 1.203125 
Q 10.59375 3.328125 8.09375 7.453125 
Q 5.609375 11.578125 4.5625 17.609375 
Q 3.515625 23.640625 3.515625 31.453125 
Q 3.515625 38.671875 4.6875 44.703125 
Q 5.859375 50.734375 8.5 55.046875 
Q 11.140625 59.375 15.4375 61.734375 
Q 19.734375 64.109375 25.984375 64.109375 
Q 31.984375 64.109375 36.0625 61.984375 
Q 40.140625 59.859375 42.625 55.734375 
Q 45.125 51.609375 46.171875 45.578125 
Q 47.21875 39.546875 47.21875 31.734375 
z
M 38.625 31.15625 
Q 38.625 35.890625 38.28125 39.640625 
Q 37.9375 43.40625 37.28125 46.28125 
Q 36.625 49.171875 35.5625 51.25 
Q 34.515625 53.328125 33.046875 54.65625 
Q 31.59375 56 29.703125 56.609375 
Q 27.828125 57.234375 25.484375 57.234375 
Q 21.34375 57.234375 18.75 55.28125 
Q 16.15625 53.328125 14.671875 49.90625 
Q 13.1875 46.484375 12.640625 41.890625 
Q 12.109375 37.3125 12.109375 32.03125 
Q 12.109375 24.953125 12.84375 20 
Q 13.578125 15.046875 15.15625 11.921875 
Q 16.75 8.796875 19.21875 7.375 
Q 21.6875 5.953125 25.203125 5.953125 
Q 27.9375 5.953125 30 6.828125 
Q 32.078125 7.71875 33.5625 9.34375 
Q 35.0625 10.984375 36.03125 13.28125 
Q 37.015625 15.578125 37.59375 18.359375 
Q 38.1875 21.140625 38.40625 24.390625 
Q 38.625 27.640625 38.625 31.15625 
z
" id="Calibri-48"/>
     </defs>
     <use xlink:href="#Calibri-48"/>
    </g>
   </g>
   <g id="text_2">
    <!-- 3 -->
    <g transform="translate(408.102455 228.55075)scale(0.16 -0.16)">
     <defs>
      <path d="M 44.625 18.0625 
Q 44.625 13.71875 43.109375 10.21875 
Q 41.609375 6.734375 38.765625 4.25 
Q 35.9375 1.765625 31.78125 0.421875 
Q 27.640625 -0.921875 22.40625 -0.921875 
Q 19.234375 -0.921875 16.46875 -0.40625 
Q 13.71875 0.09375 11.5625 0.796875 
Q 9.421875 1.515625 8 2.265625 
Q 6.59375 3.03125 6.21875 3.375 
Q 5.859375 3.71875 5.65625 4.046875 
Q 5.46875 4.390625 5.3125 4.875 
Q 5.171875 5.375 5.09375 6.078125 
Q 5.03125 6.78125 5.03125 7.8125 
Q 5.03125 9.578125 5.375 10.25 
Q 5.71875 10.9375 6.34375 10.9375 
Q 6.78125 10.9375 8.078125 10.15625 
Q 9.375 9.375 11.390625 8.46875 
Q 13.421875 7.5625 16.125 6.78125 
Q 18.84375 6 22.171875 6 
Q 25.390625 6 27.828125 6.828125 
Q 30.28125 7.671875 31.9375 9.171875 
Q 33.59375 10.6875 34.421875 12.765625 
Q 35.25 14.84375 35.25 17.28125 
Q 35.25 19.96875 34.203125 22.109375 
Q 33.15625 24.265625 31.125 25.828125 
Q 29.109375 27.390625 26.140625 28.21875 
Q 23.1875 29.046875 19.4375 29.046875 
L 13.421875 29.046875 
Q 13.03125 29.046875 12.671875 29.21875 
Q 12.3125 29.390625 12.03125 29.78125 
Q 11.765625 30.171875 11.59375 30.8125 
Q 11.421875 31.453125 11.421875 32.46875 
Q 11.421875 33.40625 11.5625 34.015625 
Q 11.71875 34.625 11.984375 34.984375 
Q 12.25 35.359375 12.59375 35.515625 
Q 12.9375 35.6875 13.375 35.6875 
L 18.890625 35.6875 
Q 22.125 35.6875 24.6875 36.515625 
Q 27.25 37.359375 29.03125 38.921875 
Q 30.8125 40.484375 31.765625 42.65625 
Q 32.71875 44.828125 32.71875 47.515625 
Q 32.71875 49.46875 32.078125 51.25 
Q 31.453125 53.03125 30.171875 54.34375 
Q 28.90625 55.671875 26.921875 56.421875 
Q 24.953125 57.171875 22.359375 57.171875 
Q 19.53125 57.171875 17.15625 56.3125 
Q 14.796875 55.46875 12.9375 54.484375 
Q 11.078125 53.515625 9.859375 52.65625 
Q 8.640625 51.8125 8.15625 51.8125 
Q 7.8125 51.8125 7.546875 51.921875 
Q 7.28125 52.046875 7.109375 52.40625 
Q 6.9375 52.78125 6.859375 53.4375 
Q 6.78125 54.109375 6.78125 55.171875 
Q 6.78125 55.90625 6.828125 56.46875 
Q 6.890625 57.03125 7.03125 57.4375 
Q 7.171875 57.859375 7.359375 58.203125 
Q 7.5625 58.546875 8.03125 59 
Q 8.5 59.46875 9.90625 60.34375 
Q 11.328125 61.234375 13.40625 62.078125 
Q 15.484375 62.9375 18.1875 63.515625 
Q 20.90625 64.109375 24.03125 64.109375 
Q 28.421875 64.109375 31.734375 62.984375 
Q 35.0625 61.859375 37.28125 59.8125 
Q 39.5 57.765625 40.59375 54.90625 
Q 41.703125 52.046875 41.703125 48.578125 
Q 41.703125 45.609375 40.921875 43.046875 
Q 40.140625 40.484375 38.625 38.5 
Q 37.109375 36.53125 34.90625 35.125 
Q 32.71875 33.734375 29.828125 33.203125 
L 29.828125 33.109375 
Q 33.109375 32.765625 35.8125 31.46875 
Q 38.53125 30.171875 40.484375 28.21875 
Q 42.4375 26.265625 43.53125 23.65625 
Q 44.625 21.046875 44.625 18.0625 
z
" id="Calibri-51"/>
     </defs>
     <use xlink:href="#Calibri-51"/>
    </g>
   </g>
   <g id="text_3">
    <!-- 5 -->
    <g transform="translate(448.131182 286.370023)scale(0.16 -0.16)">
     <defs>
      <path d="M 44.828125 20.3125 
Q 44.828125 15.234375 43.109375 11.28125 
Q 41.40625 7.328125 38.28125 4.609375 
Q 35.15625 1.90625 30.828125 0.484375 
Q 26.515625 -0.921875 21.234375 -0.921875 
Q 18.3125 -0.921875 15.671875 -0.5 
Q 13.03125 -0.09375 10.984375 0.515625 
Q 8.9375 1.125 7.609375 1.703125 
Q 6.296875 2.296875 5.921875 2.640625 
Q 5.5625 2.984375 5.421875 3.265625 
Q 5.28125 3.5625 5.15625 3.96875 
Q 5.03125 4.390625 4.984375 5.03125 
Q 4.9375 5.671875 4.9375 6.546875 
Q 4.9375 7.375 5 8.03125 
Q 5.078125 8.6875 5.265625 9.09375 
Q 5.46875 9.515625 5.734375 9.703125 
Q 6 9.90625 6.34375 9.90625 
Q 6.84375 9.90625 7.859375 9.296875 
Q 8.890625 8.6875 10.625 7.984375 
Q 12.359375 7.28125 14.921875 6.640625 
Q 17.484375 6 21 6 
Q 24.265625 6 27 6.78125 
Q 29.734375 7.5625 31.703125 9.21875 
Q 33.6875 10.890625 34.8125 13.40625 
Q 35.9375 15.921875 35.9375 19.53125 
Q 35.9375 22.5625 34.984375 24.875 
Q 34.03125 27.203125 32.046875 28.734375 
Q 30.078125 30.28125 27.046875 31.03125 
Q 24.03125 31.78125 19.828125 31.78125 
Q 16.84375 31.78125 14.6875 31.484375 
Q 12.546875 31.203125 10.6875 31.203125 
Q 9.328125 31.203125 8.734375 31.828125 
Q 8.15625 32.46875 8.15625 34.28125 
L 8.15625 60.015625 
Q 8.15625 61.625 8.90625 62.40625 
Q 9.671875 63.1875 11.078125 63.1875 
L 39.0625 63.1875 
Q 39.453125 63.1875 39.8125 62.96875 
Q 40.1875 62.75 40.421875 62.296875 
Q 40.671875 61.859375 40.796875 61.171875 
Q 40.921875 60.5 40.921875 59.578125 
Q 40.921875 57.8125 40.421875 56.828125 
Q 39.9375 55.859375 39.0625 55.859375 
L 15.484375 55.859375 
L 15.484375 38.140625 
Q 17.1875 38.375 18.96875 38.421875 
Q 20.75 38.484375 23.09375 38.484375 
Q 28.515625 38.484375 32.5625 37.1875 
Q 36.625 35.890625 39.328125 33.515625 
Q 42.046875 31.15625 43.4375 27.78125 
Q 44.828125 24.421875 44.828125 20.3125 
z
" id="Calibri-53"/>
     </defs>
     <use xlink:href="#Calibri-53"/>
    </g>
   </g>
   <g id="text_4">
    <!-- 0 -->
    <g transform="translate(247.987545 228.55075)scale(0.16 -0.16)">
     <use xlink:href="#Calibri-48"/>
    </g>
   </g>
   <g id="text_5">
    <!-- 0 -->
    <g transform="translate(421.445364 415.351477)scale(0.16 -0.16)">
     <use xlink:href="#Calibri-48"/>
    </g>
   </g>
   <g id="text_6">
    <!-- 0 -->
    <g transform="translate(328.045 255.236568)scale(0.16 -0.16)">
     <use xlink:href="#Calibri-48"/>
    </g>
   </g>
   <g id="text_7">
    <!-- 2 -->
    <g transform="translate(394.759545 326.39875)scale(0.16 -0.16)">
     <defs>
      <path d="M 45.125 3.609375 
Q 45.125 2.734375 45 2.046875 
Q 44.875 1.375 44.65625 0.90625 
Q 44.4375 0.4375 44.0625 0.21875 
Q 43.703125 0 43.265625 0 
L 8.34375 0 
Q 7.671875 0 7.15625 0.171875 
Q 6.640625 0.34375 6.265625 0.734375 
Q 5.90625 1.125 5.734375 1.859375 
Q 5.5625 2.59375 5.5625 3.65625 
Q 5.5625 4.640625 5.640625 5.375 
Q 5.71875 6.109375 5.953125 6.671875 
Q 6.203125 7.234375 6.5625 7.78125 
Q 6.9375 8.34375 7.515625 8.984375 
L 19.78125 21.96875 
Q 24.03125 26.46875 26.59375 30.03125 
Q 29.15625 33.59375 30.546875 36.515625 
Q 31.9375 39.453125 32.375 41.84375 
Q 32.8125 44.234375 32.8125 46.34375 
Q 32.8125 48.4375 32.125 50.3125 
Q 31.453125 52.203125 30.15625 53.609375 
Q 28.859375 55.03125 26.90625 55.859375 
Q 24.953125 56.6875 22.40625 56.6875 
Q 19.4375 56.6875 17.0625 55.859375 
Q 14.703125 55.03125 12.921875 54.046875 
Q 11.140625 53.078125 9.9375 52.25 
Q 8.734375 51.421875 8.15625 51.421875 
Q 7.8125 51.421875 7.546875 51.609375 
Q 7.28125 51.8125 7.109375 52.25 
Q 6.9375 52.6875 6.828125 53.421875 
Q 6.734375 54.15625 6.734375 55.171875 
Q 6.734375 55.90625 6.78125 56.4375 
Q 6.84375 56.984375 6.953125 57.375 
Q 7.078125 57.765625 7.265625 58.109375 
Q 7.46875 58.453125 8.046875 58.953125 
Q 8.640625 59.46875 10.078125 60.34375 
Q 11.53125 61.234375 13.703125 62.078125 
Q 15.875 62.9375 18.484375 63.515625 
Q 21.09375 64.109375 23.96875 64.109375 
Q 28.5625 64.109375 32 62.8125 
Q 35.453125 61.53125 37.71875 59.28125 
Q 39.984375 57.03125 41.109375 54.046875 
Q 42.234375 51.078125 42.234375 47.703125 
Q 42.234375 44.671875 41.6875 41.671875 
Q 41.15625 38.671875 39.421875 35.171875 
Q 37.703125 31.6875 34.421875 27.40625 
Q 31.15625 23.140625 25.734375 17.578125 
L 15.71875 7.125 
L 43.21875 7.125 
Q 43.609375 7.125 43.96875 6.90625 
Q 44.34375 6.6875 44.609375 6.25 
Q 44.875 5.8125 45 5.15625 
Q 45.125 4.5 45.125 3.609375 
z
" id="Calibri-50"/>
     </defs>
     <use xlink:href="#Calibri-50"/>
    </g>
   </g>
   <g id="text_8">
    <!-- 32 -->
    <g transform="translate(163.875091 361.979841)scale(0.16 -0.16)">
     <use xlink:href="#Calibri-51"/>
     <use x="50.683594" xlink:href="#Calibri-50"/>
    </g>
   </g>
   <g id="text_9">
    <!-- 0 -->
    <g transform="translate(328.045 473.17075)scale(0.16 -0.16)">
     <use xlink:href="#Calibri-48"/>
    </g>
   </g>
   <g id="text_10">
    <!-- 4 -->
    <g transform="translate(234.644636 415.351477)scale(0.16 -0.16)">
     <defs>
      <path d="M 47.796875 17.96875 
Q 47.796875 16.359375 47.3125 15.421875 
Q 46.828125 14.5 45.953125 14.5 
L 38.8125 14.5 
L 38.8125 1.21875 
Q 38.8125 0.828125 38.609375 0.5625 
Q 38.421875 0.296875 37.9375 0.09375 
Q 37.453125 -0.09375 36.671875 -0.1875 
Q 35.890625 -0.296875 34.671875 -0.296875 
Q 33.5 -0.296875 32.71875 -0.1875 
Q 31.9375 -0.09375 31.46875 0.09375 
Q 31 0.296875 30.828125 0.5625 
Q 30.671875 0.828125 30.671875 1.21875 
L 30.671875 14.5 
L 4.59375 14.5 
Q 4 14.5 3.609375 14.640625 
Q 3.21875 14.796875 2.90625 15.1875 
Q 2.59375 15.578125 2.46875 16.3125 
Q 2.34375 17.046875 2.34375 18.21875 
Q 2.34375 19.140625 2.390625 19.875 
Q 2.4375 20.609375 2.578125 21.21875 
Q 2.734375 21.828125 2.96875 22.390625 
Q 3.21875 22.953125 3.5625 23.578125 
L 26.3125 61.96875 
Q 26.5625 62.359375 27.015625 62.640625 
Q 27.484375 62.9375 28.21875 63.125 
Q 28.953125 63.328125 30.03125 63.40625 
Q 31.109375 63.484375 32.5625 63.484375 
Q 34.1875 63.484375 35.375 63.359375 
Q 36.578125 63.234375 37.296875 63.03125 
Q 38.03125 62.84375 38.421875 62.515625 
Q 38.8125 62.203125 38.8125 61.765625 
L 38.8125 21.4375 
L 45.953125 21.4375 
Q 46.78125 21.4375 47.28125 20.578125 
Q 47.796875 19.734375 47.796875 17.96875 
z
M 30.671875 56.109375 
L 30.5625 56.109375 
L 10.015625 21.4375 
L 30.671875 21.4375 
z
" id="Calibri-52"/>
     </defs>
     <use xlink:href="#Calibri-52"/>
    </g>
   </g>
   <g id="text_11">
    <!-- 4 -->
    <g transform="translate(279.121 442.037295)scale(0.16 -0.16)">
     <use xlink:href="#Calibri-52"/>
    </g>
   </g>
   <g id="text_12">
    <!-- 1 -->
    <g transform="translate(207.958818 286.370023)scale(0.16 -0.16)">
     <defs>
      <path d="M 45.265625 3.328125 
Q 45.265625 2.390625 45.109375 1.75 
Q 44.96875 1.125 44.71875 0.734375 
Q 44.484375 0.34375 44.15625 0.171875 
Q 43.84375 0 43.5 0 
L 10.5 0 
Q 10.15625 0 9.859375 0.171875 
Q 9.578125 0.34375 9.296875 0.734375 
Q 9.03125 1.125 8.875 1.75 
Q 8.734375 2.390625 8.734375 3.328125 
Q 8.734375 4.203125 8.875 4.828125 
Q 9.03125 5.46875 9.25 5.875 
Q 9.46875 6.296875 9.78125 6.515625 
Q 10.109375 6.734375 10.5 6.734375 
L 23.6875 6.734375 
L 23.6875 54.78125 
L 11.46875 47.515625 
Q 10.546875 47.015625 9.984375 46.921875 
Q 9.421875 46.828125 9.078125 47.140625 
Q 8.734375 47.46875 8.609375 48.1875 
Q 8.5 48.921875 8.5 50.046875 
Q 8.5 50.875 8.5625 51.453125 
Q 8.640625 52.046875 8.78125 52.4375 
Q 8.9375 52.828125 9.203125 53.125 
Q 9.46875 53.421875 9.90625 53.71875 
L 24.46875 63.03125 
Q 24.65625 63.1875 24.953125 63.28125 
Q 25.25 63.375 25.6875 63.46875 
Q 26.125 63.578125 26.703125 63.59375 
Q 27.296875 63.625 28.171875 63.625 
Q 29.34375 63.625 30.125 63.515625 
Q 30.90625 63.421875 31.34375 63.25 
Q 31.78125 63.09375 31.921875 62.8125 
Q 32.078125 62.546875 32.078125 62.25 
L 32.078125 6.734375 
L 43.5 6.734375 
Q 43.890625 6.734375 44.234375 6.515625 
Q 44.578125 6.296875 44.796875 5.875 
Q 45.015625 5.46875 45.140625 4.828125 
Q 45.265625 4.203125 45.265625 3.328125 
z
" id="Calibri-49"/>
     </defs>
     <use xlink:href="#Calibri-49"/>
    </g>
   </g>
   <g id="text_13">
    <!-- 0 -->
    <g transform="translate(376.969 442.037295)scale(0.16 -0.16)">
     <use xlink:href="#Calibri-48"/>
    </g>
   </g>
   <g id="text_14">
    <!-- 0 -->
    <g transform="translate(261.330455 326.39875)scale(0.16 -0.16)">
     <use xlink:href="#Calibri-48"/>
    </g>
   </g>
   <g id="text_15">
    <!-- 0 -->
    <g transform="translate(328.045 379.770386)scale(0.16 -0.16)">
     <use xlink:href="#Calibri-48"/>
    </g>
   </g>
   <g id="legend_1">
    <g id="patch_6">
     <path d="M 414.28 178.7475 
L 565.52 178.7475 
Q 568.72 178.7475 568.72 175.5475 
L 568.72 88.96 
Q 568.72 85.76 565.52 85.76 
L 414.28 85.76 
Q 411.08 85.76 411.08 88.96 
L 411.08 175.5475 
Q 411.08 178.7475 414.28 178.7475 
z
" style="fill:#ffffff;opacity:0.8;stroke:#cccccc;stroke-linejoin:miter;"/>
    </g>
    <g id="patch_7">
     <path d="M 417.48 103.36 
L 449.48 103.36 
L 449.48 92.16 
L 417.48 92.16 
z
" style="fill:#5cbf61;fill-opacity:0.5;stroke:#5cbf61;stroke-linejoin:miter;stroke-opacity:0.75;"/>
    </g>
    <g id="text_16">
     <!-- Google Scholar -->
     <g transform="translate(462.28 103.36)scale(0.16 -0.16)">
      <defs>
       <path d="M 55.859375 54.59375 
Q 55.859375 53.65625 55.765625 52.953125 
Q 55.671875 52.25 55.46875 51.78125 
Q 55.28125 51.3125 54.984375 51.109375 
Q 54.6875 50.921875 54.34375 50.921875 
Q 53.765625 50.921875 52.390625 51.84375 
Q 51.03125 52.78125 48.734375 53.90625 
Q 46.4375 55.03125 43.234375 55.953125 
Q 40.046875 56.890625 35.640625 56.890625 
Q 30.421875 56.890625 26.265625 54.984375 
Q 22.125 53.078125 19.234375 49.703125 
Q 16.359375 46.34375 14.8125 41.703125 
Q 13.28125 37.0625 13.28125 31.640625 
Q 13.28125 25.59375 14.96875 20.90625 
Q 16.65625 16.21875 19.625 12.984375 
Q 22.609375 9.765625 26.734375 8.109375 
Q 30.859375 6.453125 35.796875 6.453125 
Q 38.71875 6.453125 41.71875 7.15625 
Q 44.734375 7.859375 47.3125 9.28125 
L 47.3125 27.6875 
L 32.671875 27.6875 
Q 31.84375 27.6875 31.421875 28.515625 
Q 31 29.34375 31 31.109375 
Q 31 32.03125 31.09375 32.6875 
Q 31.203125 33.34375 31.421875 33.765625 
Q 31.640625 34.1875 31.9375 34.375 
Q 32.234375 34.578125 32.671875 34.578125 
L 52.734375 34.578125 
Q 53.265625 34.578125 53.796875 34.375 
Q 54.34375 34.1875 54.78125 33.796875 
Q 55.21875 33.40625 55.46875 32.71875 
Q 55.71875 32.03125 55.71875 31.15625 
L 55.71875 7.078125 
Q 55.71875 5.8125 55.265625 4.875 
Q 54.828125 3.953125 53.40625 3.25 
Q 52 2.546875 49.75 1.703125 
Q 47.515625 0.875 45.109375 0.28125 
Q 42.71875 -0.296875 40.28125 -0.578125 
Q 37.84375 -0.875 35.453125 -0.875 
Q 28.125 -0.875 22.359375 1.390625 
Q 16.609375 3.65625 12.625 7.859375 
Q 8.640625 12.0625 6.53125 17.921875 
Q 4.4375 23.78125 4.4375 31 
Q 4.4375 38.53125 6.703125 44.625 
Q 8.984375 50.734375 13.109375 55.03125 
Q 17.234375 59.328125 23.015625 61.6875 
Q 28.8125 64.0625 35.84375 64.0625 
Q 39.453125 64.0625 42.625 63.421875 
Q 45.796875 62.796875 48.265625 61.9375 
Q 50.734375 61.078125 52.421875 60.078125 
Q 54.109375 59.078125 54.734375 58.4375 
Q 55.375 57.8125 55.609375 56.984375 
Q 55.859375 56.15625 55.859375 54.59375 
z
" id="Calibri-71"/>
       <path d="M 48.34375 23.6875 
Q 48.34375 18.3125 46.921875 13.796875 
Q 45.515625 9.28125 42.703125 6 
Q 39.890625 2.734375 35.671875 0.90625 
Q 31.453125 -0.921875 25.875 -0.921875 
Q 20.453125 -0.921875 16.421875 0.6875 
Q 12.40625 2.296875 9.71875 5.375 
Q 7.03125 8.453125 5.703125 12.84375 
Q 4.390625 17.234375 4.390625 22.796875 
Q 4.390625 28.171875 5.78125 32.6875 
Q 7.171875 37.203125 9.984375 40.46875 
Q 12.796875 43.75 16.984375 45.546875 
Q 21.1875 47.359375 26.8125 47.359375 
Q 32.234375 47.359375 36.25 45.75 
Q 40.28125 44.140625 42.96875 41.0625 
Q 45.65625 37.984375 47 33.59375 
Q 48.34375 29.203125 48.34375 23.6875 
z
M 39.84375 23.140625 
Q 39.84375 26.703125 39.1875 29.875 
Q 38.53125 33.0625 37.015625 35.453125 
Q 35.5 37.84375 32.90625 39.234375 
Q 30.328125 40.625 26.46875 40.625 
Q 22.90625 40.625 20.34375 39.359375 
Q 17.78125 38.09375 16.109375 35.765625 
Q 14.453125 33.453125 13.640625 30.265625 
Q 12.84375 27.09375 12.84375 23.34375 
Q 12.84375 19.734375 13.5 16.546875 
Q 14.15625 13.375 15.6875 11 
Q 17.234375 8.640625 19.8125 7.25 
Q 22.40625 5.859375 26.265625 5.859375 
Q 29.78125 5.859375 32.375 7.125 
Q 34.96875 8.40625 36.625 10.6875 
Q 38.28125 12.984375 39.0625 16.15625 
Q 39.84375 19.34375 39.84375 23.140625 
z
" id="Calibri-111"/>
       <path d="M 44.1875 43.171875 
Q 44.1875 41.453125 43.71875 40.6875 
Q 43.265625 39.9375 42.53125 39.9375 
L 36.234375 39.9375 
Q 37.9375 38.1875 38.625 36.0625 
Q 39.3125 33.9375 39.3125 31.640625 
Q 39.3125 27.828125 38.078125 24.890625 
Q 36.859375 21.96875 34.59375 19.9375 
Q 32.328125 17.921875 29.203125 16.84375 
Q 26.078125 15.765625 22.265625 15.765625 
Q 19.578125 15.765625 17.15625 16.46875 
Q 14.75 17.1875 13.421875 18.265625 
Q 12.546875 17.390625 11.984375 16.265625 
Q 11.421875 15.140625 11.421875 13.671875 
Q 11.421875 11.96875 13 10.84375 
Q 14.59375 9.71875 17.234375 9.625 
L 28.71875 9.125 
Q 31.984375 9.03125 34.71875 8.21875 
Q 37.453125 7.421875 39.453125 5.921875 
Q 41.453125 4.4375 42.578125 2.265625 
Q 43.703125 0.09375 43.703125 -2.78125 
Q 43.703125 -5.8125 42.421875 -8.546875 
Q 41.15625 -11.28125 38.546875 -13.359375 
Q 35.9375 -15.4375 31.875 -16.625 
Q 27.828125 -17.828125 22.3125 -17.828125 
Q 17 -17.828125 13.25 -16.921875 
Q 9.515625 -16.015625 7.125 -14.453125 
Q 4.734375 -12.890625 3.65625 -10.71875 
Q 2.59375 -8.546875 2.59375 -6 
Q 2.59375 -4.390625 2.984375 -2.875 
Q 3.375 -1.375 4.171875 0 
Q 4.984375 1.375 6.171875 2.609375 
Q 7.375 3.859375 8.9375 5.078125 
Q 6.546875 6.296875 5.390625 8.15625 
Q 4.25 10.015625 4.25 12.15625 
Q 4.25 15.140625 5.46875 17.484375 
Q 6.6875 19.828125 8.5 21.6875 
Q 6.984375 23.484375 6.09375 25.75 
Q 5.21875 28.03125 5.21875 31.25 
Q 5.21875 35.015625 6.484375 37.984375 
Q 7.765625 40.96875 10 43.015625 
Q 12.25 45.0625 15.40625 46.15625 
Q 18.5625 47.265625 22.265625 47.265625 
Q 24.265625 47.265625 26 47.046875 
Q 27.734375 46.828125 29.25 46.4375 
L 42.53125 46.4375 
Q 43.359375 46.4375 43.765625 45.625 
Q 44.1875 44.828125 44.1875 43.171875 
z
M 31.59375 31.59375 
Q 31.59375 36.078125 29.125 38.59375 
Q 26.65625 41.109375 22.125 41.109375 
Q 19.78125 41.109375 18.046875 40.328125 
Q 16.3125 39.546875 15.15625 38.171875 
Q 14.015625 36.8125 13.453125 35.03125 
Q 12.890625 33.25 12.890625 31.296875 
Q 12.890625 26.953125 15.359375 24.453125 
Q 17.828125 21.96875 22.265625 21.96875 
Q 24.65625 21.96875 26.40625 22.71875 
Q 28.171875 23.484375 29.3125 24.828125 
Q 30.46875 26.171875 31.03125 27.921875 
Q 31.59375 29.6875 31.59375 31.59375 
z
M 35.640625 -3.21875 
Q 35.640625 -0.390625 33.3125 1.140625 
Q 31 2.6875 27.046875 2.78125 
L 15.671875 3.171875 
Q 14.109375 1.953125 13.109375 0.84375 
Q 12.109375 -0.25 11.515625 -1.25 
Q 10.9375 -2.25 10.71875 -3.21875 
Q 10.5 -4.203125 10.5 -5.21875 
Q 10.5 -8.40625 13.71875 -10.03125 
Q 16.9375 -11.671875 22.703125 -11.671875 
Q 26.375 -11.671875 28.828125 -10.953125 
Q 31.296875 -10.25 32.8125 -9.078125 
Q 34.328125 -7.90625 34.984375 -6.390625 
Q 35.640625 -4.890625 35.640625 -3.21875 
z
" id="Calibri-103"/>
       <path d="M 15.53125 1.21875 
Q 15.53125 0.828125 15.328125 0.5625 
Q 15.140625 0.296875 14.703125 0.09375 
Q 14.265625 -0.09375 13.484375 -0.1875 
Q 12.703125 -0.296875 11.46875 -0.296875 
Q 10.296875 -0.296875 9.515625 -0.1875 
Q 8.734375 -0.09375 8.265625 0.09375 
Q 7.8125 0.296875 7.640625 0.5625 
Q 7.46875 0.828125 7.46875 1.21875 
L 7.46875 66.453125 
Q 7.46875 66.84375 7.640625 67.140625 
Q 7.8125 67.4375 8.265625 67.625 
Q 8.734375 67.828125 9.515625 67.921875 
Q 10.296875 68.015625 11.46875 68.015625 
Q 12.703125 68.015625 13.484375 67.921875 
Q 14.265625 67.828125 14.703125 67.625 
Q 15.140625 67.4375 15.328125 67.140625 
Q 15.53125 66.84375 15.53125 66.453125 
z
" id="Calibri-108"/>
       <path d="M 44.96875 25.09375 
Q 44.96875 23.1875 44.015625 22.375 
Q 43.0625 21.578125 41.84375 21.578125 
L 13.03125 21.578125 
Q 13.03125 17.921875 13.765625 14.984375 
Q 14.5 12.0625 16.203125 9.953125 
Q 17.921875 7.859375 20.65625 6.734375 
Q 23.390625 5.609375 27.34375 5.609375 
Q 30.46875 5.609375 32.90625 6.125 
Q 35.359375 6.640625 37.140625 7.265625 
Q 38.921875 7.90625 40.0625 8.421875 
Q 41.21875 8.9375 41.796875 8.9375 
Q 42.140625 8.9375 42.40625 8.765625 
Q 42.671875 8.59375 42.8125 8.25 
Q 42.96875 7.90625 43.03125 7.296875 
Q 43.109375 6.6875 43.109375 5.8125 
Q 43.109375 5.171875 43.0625 4.703125 
Q 43.015625 4.25 42.9375 3.875 
Q 42.875 3.515625 42.703125 3.21875 
Q 42.53125 2.9375 42.265625 2.65625 
Q 42 2.390625 40.671875 1.78125 
Q 39.359375 1.171875 37.25 0.578125 
Q 35.15625 0 32.390625 -0.453125 
Q 29.640625 -0.921875 26.515625 -0.921875 
Q 21.09375 -0.921875 17.015625 0.578125 
Q 12.9375 2.09375 10.15625 5.078125 
Q 7.375 8.0625 5.953125 12.546875 
Q 4.546875 17.046875 4.546875 23 
Q 4.546875 28.65625 6 33.171875 
Q 7.46875 37.703125 10.21875 40.84375 
Q 12.984375 44 16.890625 45.671875 
Q 20.796875 47.359375 25.640625 47.359375 
Q 30.8125 47.359375 34.453125 45.703125 
Q 38.09375 44.046875 40.4375 41.234375 
Q 42.78125 38.421875 43.875 34.640625 
Q 44.96875 30.859375 44.96875 26.5625 
z
M 36.859375 27.484375 
Q 37.015625 33.84375 34.0625 37.453125 
Q 31.109375 41.0625 25.296875 41.0625 
Q 22.3125 41.0625 20.0625 39.9375 
Q 17.828125 38.8125 16.3125 36.953125 
Q 14.796875 35.109375 13.96875 32.640625 
Q 13.140625 30.171875 13.03125 27.484375 
z
" id="Calibri-101"/>
       <path id="Calibri-32"/>
       <path d="M 42.328125 17.71875 
Q 42.328125 13.28125 40.6875 9.8125 
Q 39.0625 6.34375 36.15625 3.921875 
Q 33.25 1.515625 29.3125 0.296875 
Q 25.390625 -0.921875 20.84375 -0.921875 
Q 17.671875 -0.921875 14.953125 -0.390625 
Q 12.25 0.140625 10.125 0.921875 
Q 8.015625 1.703125 6.5625 2.53125 
Q 5.125 3.375 4.5625 3.953125 
Q 4 4.546875 3.734375 5.4375 
Q 3.46875 6.34375 3.46875 7.859375 
Q 3.46875 8.9375 3.5625 9.640625 
Q 3.65625 10.359375 3.84375 10.796875 
Q 4.046875 11.234375 4.34375 11.40625 
Q 4.640625 11.578125 5.03125 11.578125 
Q 5.71875 11.578125 6.953125 10.734375 
Q 8.203125 9.90625 10.15625 8.921875 
Q 12.109375 7.953125 14.859375 7.09375 
Q 17.625 6.25 21.234375 6.25 
Q 23.96875 6.25 26.234375 6.984375 
Q 28.515625 7.71875 30.140625 9.0625 
Q 31.78125 10.40625 32.65625 12.359375 
Q 33.546875 14.3125 33.546875 16.796875 
Q 33.546875 19.484375 32.328125 21.390625 
Q 31.109375 23.296875 29.09375 24.734375 
Q 27.09375 26.171875 24.53125 27.359375 
Q 21.96875 28.5625 19.28125 29.8125 
Q 16.609375 31.0625 14.0625 32.5625 
Q 11.53125 34.078125 9.515625 36.125 
Q 7.515625 38.1875 6.265625 40.9375 
Q 5.03125 43.703125 5.03125 47.5625 
Q 5.03125 51.515625 6.46875 54.609375 
Q 7.90625 57.71875 10.46875 59.8125 
Q 13.03125 61.921875 16.578125 63.015625 
Q 20.125 64.109375 24.21875 64.109375 
Q 26.3125 64.109375 28.4375 63.734375 
Q 30.5625 63.375 32.4375 62.765625 
Q 34.328125 62.15625 35.78125 61.390625 
Q 37.25 60.640625 37.71875 60.171875 
Q 38.1875 59.71875 38.328125 59.453125 
Q 38.484375 59.1875 38.578125 58.765625 
Q 38.671875 58.34375 38.71875 57.75 
Q 38.765625 57.171875 38.765625 56.25 
Q 38.765625 55.375 38.6875 54.6875 
Q 38.625 54 38.46875 53.53125 
Q 38.328125 53.078125 38.0625 52.859375 
Q 37.796875 52.640625 37.453125 52.640625 
Q 36.921875 52.640625 35.765625 53.3125 
Q 34.625 54 32.953125 54.859375 
Q 31.296875 55.71875 29.03125 56.421875 
Q 26.765625 57.125 23.921875 57.125 
Q 21.296875 57.125 19.34375 56.421875 
Q 17.390625 55.71875 16.109375 54.546875 
Q 14.84375 53.375 14.203125 51.75 
Q 13.578125 50.140625 13.578125 48.34375 
Q 13.578125 45.703125 14.796875 43.796875 
Q 16.015625 41.890625 18.03125 40.421875 
Q 20.0625 38.96875 22.65625 37.75 
Q 25.25 36.53125 27.921875 35.28125 
Q 30.609375 34.03125 33.203125 32.546875 
Q 35.796875 31.0625 37.8125 29.03125 
Q 39.84375 27 41.078125 24.234375 
Q 42.328125 21.484375 42.328125 17.71875 
z
" id="Calibri-83"/>
       <path d="M 39.0625 7.90625 
Q 39.0625 7.078125 39.015625 6.46875 
Q 38.96875 5.859375 38.84375 5.4375 
Q 38.71875 5.03125 38.546875 4.703125 
Q 38.375 4.390625 37.765625 3.78125 
Q 37.15625 3.171875 35.6875 2.265625 
Q 34.234375 1.375 32.390625 0.65625 
Q 30.5625 -0.046875 28.40625 -0.484375 
Q 26.265625 -0.921875 23.96875 -0.921875 
Q 19.234375 -0.921875 15.578125 0.640625 
Q 11.921875 2.203125 9.453125 5.203125 
Q 6.984375 8.203125 5.6875 12.5625 
Q 4.390625 16.9375 4.390625 22.65625 
Q 4.390625 29.15625 5.96875 33.8125 
Q 7.5625 38.484375 10.328125 41.453125 
Q 13.09375 44.4375 16.828125 45.875 
Q 20.5625 47.3125 24.90625 47.3125 
Q 27 47.3125 28.96875 46.921875 
Q 30.953125 46.53125 32.609375 45.890625 
Q 34.28125 45.265625 35.5625 44.4375 
Q 36.859375 43.609375 37.4375 43.015625 
Q 38.03125 42.4375 38.25 42.09375 
Q 38.484375 41.75 38.625 41.28125 
Q 38.765625 40.828125 38.8125 40.234375 
Q 38.875 39.65625 38.875 38.765625 
Q 38.875 36.859375 38.421875 36.109375 
Q 37.984375 35.359375 37.359375 35.359375 
Q 36.625 35.359375 35.671875 36.15625 
Q 34.71875 36.96875 33.25 37.9375 
Q 31.78125 38.921875 29.703125 39.71875 
Q 27.640625 40.53125 24.8125 40.53125 
Q 19 40.53125 15.890625 36.0625 
Q 12.796875 31.59375 12.796875 23.09375 
Q 12.796875 18.84375 13.59375 15.640625 
Q 14.40625 12.453125 15.96875 10.296875 
Q 17.53125 8.15625 19.796875 7.109375 
Q 22.078125 6.0625 25 6.0625 
Q 27.78125 6.0625 29.875 6.9375 
Q 31.984375 7.8125 33.515625 8.859375 
Q 35.0625 9.90625 36.109375 10.765625 
Q 37.15625 11.625 37.75 11.625 
Q 38.09375 11.625 38.328125 11.421875 
Q 38.578125 11.234375 38.75 10.765625 
Q 38.921875 10.296875 38.984375 9.59375 
Q 39.0625 8.890625 39.0625 7.90625 
z
" id="Calibri-99"/>
       <path d="M 45.3125 1.21875 
Q 45.3125 0.828125 45.109375 0.5625 
Q 44.921875 0.296875 44.484375 0.09375 
Q 44.046875 -0.09375 43.265625 -0.1875 
Q 42.484375 -0.296875 41.3125 -0.296875 
Q 40.09375 -0.296875 39.3125 -0.1875 
Q 38.53125 -0.09375 38.078125 0.09375 
Q 37.640625 0.296875 37.4375 0.5625 
Q 37.25 0.828125 37.25 1.21875 
L 37.25 26.953125 
Q 37.25 30.71875 36.65625 33 
Q 36.078125 35.296875 34.953125 36.953125 
Q 33.84375 38.625 32.0625 39.5 
Q 30.28125 40.375 27.9375 40.375 
Q 24.90625 40.375 21.875 38.21875 
Q 18.84375 36.078125 15.53125 31.9375 
L 15.53125 1.21875 
Q 15.53125 0.828125 15.328125 0.5625 
Q 15.140625 0.296875 14.703125 0.09375 
Q 14.265625 -0.09375 13.484375 -0.1875 
Q 12.703125 -0.296875 11.46875 -0.296875 
Q 10.296875 -0.296875 9.515625 -0.1875 
Q 8.734375 -0.09375 8.265625 0.09375 
Q 7.8125 0.296875 7.640625 0.5625 
Q 7.46875 0.828125 7.46875 1.21875 
L 7.46875 66.453125 
Q 7.46875 66.84375 7.640625 67.140625 
Q 7.8125 67.4375 8.265625 67.625 
Q 8.734375 67.828125 9.515625 67.921875 
Q 10.296875 68.015625 11.46875 68.015625 
Q 12.703125 68.015625 13.484375 67.921875 
Q 14.265625 67.828125 14.703125 67.625 
Q 15.140625 67.4375 15.328125 67.140625 
Q 15.53125 66.84375 15.53125 66.453125 
L 15.53125 40.140625 
Q 19 43.796875 22.515625 45.578125 
Q 26.03125 47.359375 29.59375 47.359375 
Q 33.984375 47.359375 36.984375 45.875 
Q 39.984375 44.390625 41.84375 41.890625 
Q 43.703125 39.40625 44.5 36.0625 
Q 45.3125 32.71875 45.3125 27.984375 
z
" id="Calibri-104"/>
       <path d="M 40.578125 1.171875 
Q 40.578125 0.59375 40.1875 0.296875 
Q 39.796875 0 39.109375 -0.140625 
Q 38.421875 -0.296875 37.109375 -0.296875 
Q 35.84375 -0.296875 35.078125 -0.140625 
Q 34.328125 0 33.984375 0.296875 
Q 33.640625 0.59375 33.640625 1.171875 
L 33.640625 5.5625 
Q 30.765625 2.484375 27.21875 0.78125 
Q 23.6875 -0.921875 19.734375 -0.921875 
Q 16.265625 -0.921875 13.453125 -0.015625 
Q 10.640625 0.875 8.65625 2.578125 
Q 6.6875 4.296875 5.59375 6.78125 
Q 4.5 9.28125 4.5 12.453125 
Q 4.5 16.15625 6 18.890625 
Q 7.515625 21.625 10.34375 23.4375 
Q 13.1875 25.25 17.28125 26.140625 
Q 21.390625 27.046875 26.515625 27.046875 
L 32.5625 27.046875 
L 32.5625 30.46875 
Q 32.5625 33.015625 32.03125 34.96875 
Q 31.5 36.921875 30.296875 38.203125 
Q 29.109375 39.5 27.203125 40.15625 
Q 25.296875 40.828125 22.515625 40.828125 
Q 19.53125 40.828125 17.15625 40.109375 
Q 14.796875 39.40625 13.015625 38.546875 
Q 11.234375 37.703125 10.03125 36.984375 
Q 8.84375 36.28125 8.25 36.28125 
Q 7.859375 36.28125 7.5625 36.46875 
Q 7.28125 36.671875 7.0625 37.0625 
Q 6.84375 37.453125 6.734375 38.0625 
Q 6.640625 38.671875 6.640625 39.40625 
Q 6.640625 40.625 6.8125 41.328125 
Q 6.984375 42.046875 7.640625 42.671875 
Q 8.296875 43.3125 9.90625 44.15625 
Q 11.53125 45.015625 13.625 45.71875 
Q 15.71875 46.4375 18.203125 46.890625 
Q 20.703125 47.359375 23.25 47.359375 
Q 27.984375 47.359375 31.296875 46.28125 
Q 34.625 45.21875 36.671875 43.140625 
Q 38.71875 41.0625 39.640625 37.984375 
Q 40.578125 34.90625 40.578125 30.8125 
z
M 32.5625 21.234375 
L 25.6875 21.234375 
Q 22.359375 21.234375 19.921875 20.671875 
Q 17.484375 20.125 15.875 19.015625 
Q 14.265625 17.921875 13.5 16.375 
Q 12.75 14.84375 12.75 12.84375 
Q 12.75 9.421875 14.921875 7.390625 
Q 17.09375 5.375 21 5.375 
Q 24.171875 5.375 26.875 6.984375 
Q 29.59375 8.59375 32.5625 11.921875 
z
" id="Calibri-97"/>
       <path d="M 33.15625 42.28125 
Q 33.15625 41.21875 33.109375 40.484375 
Q 33.0625 39.75 32.90625 39.328125 
Q 32.765625 38.921875 32.546875 38.703125 
Q 32.328125 38.484375 31.9375 38.484375 
Q 31.546875 38.484375 30.984375 38.703125 
Q 30.421875 38.921875 29.703125 39.140625 
Q 29 39.359375 28.125 39.546875 
Q 27.25 39.75 26.21875 39.75 
Q 25 39.75 23.828125 39.25 
Q 22.65625 38.765625 21.359375 37.640625 
Q 20.0625 36.53125 18.640625 34.671875 
Q 17.234375 32.8125 15.53125 30.125 
L 15.53125 1.21875 
Q 15.53125 0.828125 15.328125 0.5625 
Q 15.140625 0.296875 14.703125 0.09375 
Q 14.265625 -0.09375 13.484375 -0.1875 
Q 12.703125 -0.296875 11.46875 -0.296875 
Q 10.296875 -0.296875 9.515625 -0.1875 
Q 8.734375 -0.09375 8.265625 0.09375 
Q 7.8125 0.296875 7.640625 0.5625 
Q 7.46875 0.828125 7.46875 1.21875 
L 7.46875 45.171875 
Q 7.46875 45.5625 7.609375 45.828125 
Q 7.765625 46.09375 8.203125 46.3125 
Q 8.640625 46.53125 9.328125 46.609375 
Q 10.015625 46.6875 11.140625 46.6875 
Q 12.203125 46.6875 12.90625 46.609375 
Q 13.625 46.53125 14.015625 46.3125 
Q 14.40625 46.09375 14.578125 45.828125 
Q 14.75 45.5625 14.75 45.171875 
L 14.75 38.765625 
Q 16.546875 41.40625 18.140625 43.0625 
Q 19.734375 44.734375 21.140625 45.671875 
Q 22.5625 46.625 23.953125 46.984375 
Q 25.34375 47.359375 26.765625 47.359375 
Q 27.390625 47.359375 28.1875 47.28125 
Q 29 47.21875 29.875 47.015625 
Q 30.765625 46.828125 31.46875 46.578125 
Q 32.171875 46.34375 32.46875 46.09375 
Q 32.765625 45.84375 32.859375 45.625 
Q 32.953125 45.40625 33.03125 45.0625 
Q 33.109375 44.734375 33.125 44.0625 
Q 33.15625 43.40625 33.15625 42.28125 
z
" id="Calibri-114"/>
      </defs>
      <use xlink:href="#Calibri-71"/>
      <use x="63.085938" xlink:href="#Calibri-111"/>
      <use x="115.820312" xlink:href="#Calibri-111"/>
      <use x="168.554688" xlink:href="#Calibri-103"/>
      <use x="215.625" xlink:href="#Calibri-108"/>
      <use x="238.574219" xlink:href="#Calibri-101"/>
      <use x="288.330078" xlink:href="#Calibri-32"/>
      <use x="310.9375" xlink:href="#Calibri-83"/>
      <use x="356.884766" xlink:href="#Calibri-99"/>
      <use x="399.169922" xlink:href="#Calibri-104"/>
      <use x="451.708984" xlink:href="#Calibri-111"/>
      <use x="504.443359" xlink:href="#Calibri-108"/>
      <use x="527.392578" xlink:href="#Calibri-97"/>
      <use x="575.292969" xlink:href="#Calibri-114"/>
     </g>
    </g>
    <g id="patch_8">
     <path d="M 417.48 125.4125 
L 449.48 125.4125 
L 449.48 114.2125 
L 417.48 114.2125 
z
" style="fill:#599cd4;fill-opacity:0.5;stroke:#599cd4;stroke-linejoin:miter;stroke-opacity:0.75;"/>
    </g>
    <g id="text_17">
     <!-- IEEE Xplore -->
     <g transform="translate(462.28 125.4125)scale(0.16 -0.16)">
      <defs>
       <path d="M 16.796875 1.265625 
Q 16.796875 0.875 16.59375 0.578125 
Q 16.40625 0.296875 15.921875 0.125 
Q 15.4375 -0.046875 14.625 -0.171875 
Q 13.8125 -0.296875 12.59375 -0.296875 
Q 11.421875 -0.296875 10.59375 -0.171875 
Q 9.765625 -0.046875 9.28125 0.125 
Q 8.796875 0.296875 8.59375 0.578125 
Q 8.40625 0.875 8.40625 1.265625 
L 8.40625 61.921875 
Q 8.40625 62.3125 8.625 62.59375 
Q 8.84375 62.890625 9.34375 63.0625 
Q 9.859375 63.234375 10.65625 63.359375 
Q 11.46875 63.484375 12.59375 63.484375 
Q 13.8125 63.484375 14.625 63.359375 
Q 15.4375 63.234375 15.921875 63.0625 
Q 16.40625 62.890625 16.59375 62.59375 
Q 16.796875 62.3125 16.796875 61.921875 
z
" id="Calibri-73"/>
       <path d="M 43.5625 3.46875 
Q 43.5625 2.59375 43.453125 1.921875 
Q 43.359375 1.265625 43.109375 0.828125 
Q 42.875 0.390625 42.546875 0.1875 
Q 42.234375 0 41.84375 0 
L 11.53125 0 
Q 10.40625 0 9.40625 0.75 
Q 8.40625 1.515625 8.40625 3.421875 
L 8.40625 59.765625 
Q 8.40625 61.671875 9.40625 62.421875 
Q 10.40625 63.1875 11.53125 63.1875 
L 41.5 63.1875 
Q 41.890625 63.1875 42.203125 62.984375 
Q 42.53125 62.796875 42.71875 62.359375 
Q 42.921875 61.921875 43.046875 61.25 
Q 43.171875 60.59375 43.171875 59.625 
Q 43.171875 58.734375 43.046875 58.078125 
Q 42.921875 57.421875 42.71875 57 
Q 42.53125 56.59375 42.203125 56.390625 
Q 41.890625 56.203125 41.5 56.203125 
L 16.796875 56.203125 
L 16.796875 36.375 
L 37.984375 36.375 
Q 38.375 36.375 38.6875 36.15625 
Q 39.015625 35.9375 39.234375 35.546875 
Q 39.453125 35.15625 39.546875 34.46875 
Q 39.65625 33.796875 39.65625 32.859375 
Q 39.65625 31.984375 39.546875 31.34375 
Q 39.453125 30.71875 39.234375 30.328125 
Q 39.015625 29.9375 38.6875 29.765625 
Q 38.375 29.59375 37.984375 29.59375 
L 16.796875 29.59375 
L 16.796875 6.984375 
L 41.84375 6.984375 
Q 42.234375 6.984375 42.546875 6.78125 
Q 42.875 6.59375 43.109375 6.171875 
Q 43.359375 5.765625 43.453125 5.09375 
Q 43.5625 4.4375 43.5625 3.46875 
z
" id="Calibri-69"/>
       <path d="M 48.640625 3.03125 
Q 49.265625 1.953125 49.390625 1.3125 
Q 49.515625 0.6875 49.078125 0.3125 
Q 48.640625 -0.046875 47.625 -0.171875 
Q 46.625 -0.296875 44.96875 -0.296875 
Q 43.40625 -0.296875 42.53125 -0.21875 
Q 41.65625 -0.140625 41.140625 0.046875 
Q 40.625 0.25 40.359375 0.515625 
Q 40.09375 0.78125 39.890625 1.21875 
L 25.828125 26.375 
L 11.625 1.21875 
Q 11.375 0.78125 11.078125 0.484375 
Q 10.796875 0.203125 10.28125 0.03125 
Q 9.765625 -0.140625 8.890625 -0.21875 
Q 8.015625 -0.296875 6.546875 -0.296875 
Q 4.9375 -0.296875 4 -0.171875 
Q 3.078125 -0.046875 2.703125 0.3125 
Q 2.34375 0.6875 2.46875 1.3125 
Q 2.59375 1.953125 3.21875 3.03125 
L 20.453125 32.078125 
L 4 60.15625 
Q 3.421875 61.234375 3.25 61.890625 
Q 3.078125 62.546875 3.46875 62.90625 
Q 3.859375 63.28125 4.828125 63.375 
Q 5.8125 63.484375 7.515625 63.484375 
Q 8.984375 63.484375 9.90625 63.40625 
Q 10.84375 63.328125 11.375 63.15625 
Q 11.921875 62.984375 12.15625 62.671875 
Q 12.40625 62.359375 12.703125 61.96875 
L 26.265625 38.328125 
L 39.75 61.96875 
Q 39.984375 62.359375 40.234375 62.671875 
Q 40.484375 62.984375 40.9375 63.15625 
Q 41.40625 63.328125 42.234375 63.40625 
Q 43.0625 63.484375 44.484375 63.484375 
Q 46 63.484375 46.953125 63.359375 
Q 47.90625 63.234375 48.3125 62.890625 
Q 48.734375 62.546875 48.625 61.890625 
Q 48.53125 61.234375 47.953125 60.15625 
L 31.546875 32.28125 
z
" id="Calibri-88"/>
       <path d="M 47.90625 23.875 
Q 47.90625 18.109375 46.65625 13.515625 
Q 45.40625 8.9375 42.984375 5.734375 
Q 40.578125 2.546875 37.015625 0.8125 
Q 33.453125 -0.921875 28.859375 -0.921875 
Q 26.90625 -0.921875 25.234375 -0.53125 
Q 23.578125 -0.140625 21.984375 0.6875 
Q 20.40625 1.515625 18.84375 2.78125 
Q 17.28125 4.046875 15.53125 5.765625 
L 15.53125 -16.21875 
Q 15.53125 -16.609375 15.328125 -16.890625 
Q 15.140625 -17.1875 14.703125 -17.375 
Q 14.265625 -17.578125 13.484375 -17.671875 
Q 12.703125 -17.78125 11.46875 -17.78125 
Q 10.296875 -17.78125 9.515625 -17.671875 
Q 8.734375 -17.578125 8.265625 -17.375 
Q 7.8125 -17.1875 7.640625 -16.890625 
Q 7.46875 -16.609375 7.46875 -16.21875 
L 7.46875 45.171875 
Q 7.46875 45.609375 7.609375 45.875 
Q 7.765625 46.140625 8.203125 46.328125 
Q 8.640625 46.53125 9.328125 46.609375 
Q 10.015625 46.6875 10.984375 46.6875 
Q 12.015625 46.6875 12.671875 46.609375 
Q 13.328125 46.53125 13.765625 46.328125 
Q 14.203125 46.140625 14.375 45.875 
Q 14.546875 45.609375 14.546875 45.171875 
L 14.546875 39.265625 
Q 16.546875 41.3125 18.40625 42.828125 
Q 20.265625 44.34375 22.140625 45.34375 
Q 24.03125 46.34375 26 46.84375 
Q 27.984375 47.359375 30.171875 47.359375 
Q 34.96875 47.359375 38.328125 45.5 
Q 41.703125 43.65625 43.828125 40.421875 
Q 45.953125 37.203125 46.921875 32.921875 
Q 47.90625 28.65625 47.90625 23.875 
z
M 39.40625 22.953125 
Q 39.40625 26.3125 38.890625 29.46875 
Q 38.375 32.625 37.125 35.0625 
Q 35.890625 37.5 33.78125 38.96875 
Q 31.6875 40.4375 28.5625 40.4375 
Q 27 40.4375 25.484375 39.96875 
Q 23.96875 39.5 22.40625 38.5 
Q 20.84375 37.5 19.140625 35.859375 
Q 17.4375 34.234375 15.53125 31.84375 
L 15.53125 14.359375 
Q 18.84375 10.296875 21.828125 8.140625 
Q 24.8125 6 28.078125 6 
Q 31.109375 6 33.28125 7.46875 
Q 35.453125 8.9375 36.796875 11.375 
Q 38.140625 13.8125 38.765625 16.84375 
Q 39.40625 19.875 39.40625 22.953125 
z
" id="Calibri-112"/>
      </defs>
      <use xlink:href="#Calibri-73"/>
      <use x="25.195312" xlink:href="#Calibri-69"/>
      <use x="74.023438" xlink:href="#Calibri-69"/>
      <use x="122.851562" xlink:href="#Calibri-69"/>
      <use x="171.679688" xlink:href="#Calibri-32"/>
      <use x="194.287109" xlink:href="#Calibri-88"/>
      <use x="246.191406" xlink:href="#Calibri-112"/>
      <use x="298.730469" xlink:href="#Calibri-108"/>
      <use x="321.679688" xlink:href="#Calibri-111"/>
      <use x="374.414062" xlink:href="#Calibri-114"/>
      <use x="409.277344" xlink:href="#Calibri-101"/>
     </g>
    </g>
    <g id="patch_9">
     <path d="M 417.48 147.4575 
L 449.48 147.4575 
L 449.48 136.2575 
L 417.48 136.2575 
z
" style="fill:#f5ed57;fill-opacity:0.6;stroke:#f5ed57;stroke-linejoin:miter;stroke-opacity:0.8;"/>
    </g>
    <g id="text_18">
     <!-- Scopus -->
     <g transform="translate(462.28 147.4575)scale(0.16 -0.16)">
      <defs>
       <path d="M 45.125 1.21875 
Q 45.125 0.828125 44.953125 0.5625 
Q 44.78125 0.296875 44.328125 0.09375 
Q 43.890625 -0.09375 43.1875 -0.1875 
Q 42.484375 -0.296875 41.453125 -0.296875 
Q 40.328125 -0.296875 39.625 -0.1875 
Q 38.921875 -0.09375 38.5 0.09375 
Q 38.09375 0.296875 37.9375 0.5625 
Q 37.796875 0.828125 37.796875 1.21875 
L 37.796875 7.03125 
Q 34.03125 2.875 30.359375 0.96875 
Q 26.703125 -0.921875 22.953125 -0.921875 
Q 18.5625 -0.921875 15.546875 0.53125 
Q 12.546875 2 10.6875 4.515625 
Q 8.84375 7.03125 8.03125 10.375 
Q 7.234375 13.71875 7.234375 18.5 
L 7.234375 45.171875 
Q 7.234375 45.5625 7.390625 45.828125 
Q 7.5625 46.09375 8.046875 46.3125 
Q 8.546875 46.53125 9.328125 46.609375 
Q 10.109375 46.6875 11.28125 46.6875 
Q 12.453125 46.6875 13.234375 46.609375 
Q 14.015625 46.53125 14.46875 46.3125 
Q 14.9375 46.09375 15.125 45.828125 
Q 15.328125 45.5625 15.328125 45.171875 
L 15.328125 19.578125 
Q 15.328125 15.71875 15.890625 13.390625 
Q 16.453125 11.078125 17.59375 9.4375 
Q 18.75 7.8125 20.5 6.90625 
Q 22.265625 6 24.609375 6 
Q 27.640625 6 30.640625 8.140625 
Q 33.640625 10.296875 37.015625 14.453125 
L 37.015625 45.171875 
Q 37.015625 45.5625 37.1875 45.828125 
Q 37.359375 46.09375 37.84375 46.3125 
Q 38.328125 46.53125 39.078125 46.609375 
Q 39.84375 46.6875 41.0625 46.6875 
Q 42.234375 46.6875 43.015625 46.609375 
Q 43.796875 46.53125 44.234375 46.3125 
Q 44.671875 46.09375 44.890625 45.828125 
Q 45.125 45.5625 45.125 45.171875 
z
" id="Calibri-117"/>
       <path d="M 35.0625 13.1875 
Q 35.0625 9.8125 33.8125 7.171875 
Q 32.5625 4.546875 30.265625 2.734375 
Q 27.984375 0.921875 24.796875 0 
Q 21.625 -0.921875 17.828125 -0.921875 
Q 15.484375 -0.921875 13.359375 -0.5625 
Q 11.234375 -0.203125 9.546875 0.359375 
Q 7.859375 0.921875 6.6875 1.53125 
Q 5.515625 2.15625 4.96875 2.640625 
Q 4.4375 3.125 4.1875 4 
Q 3.953125 4.890625 3.953125 6.390625 
Q 3.953125 7.328125 4.046875 7.953125 
Q 4.15625 8.59375 4.296875 8.984375 
Q 4.4375 9.375 4.703125 9.546875 
Q 4.984375 9.71875 5.328125 9.71875 
Q 5.859375 9.71875 6.90625 9.0625 
Q 7.953125 8.40625 9.484375 7.625 
Q 11.03125 6.84375 13.125 6.171875 
Q 15.234375 5.515625 17.96875 5.515625 
Q 20.015625 5.515625 21.671875 5.953125 
Q 23.34375 6.390625 24.5625 7.25 
Q 25.78125 8.109375 26.4375 9.421875 
Q 27.09375 10.75 27.09375 12.546875 
Q 27.09375 14.40625 26.140625 15.671875 
Q 25.203125 16.9375 23.640625 17.90625 
Q 22.078125 18.890625 20.125 19.640625 
Q 18.171875 20.40625 16.09375 21.234375 
Q 14.015625 22.078125 12.03125 23.125 
Q 10.0625 24.171875 8.5 25.6875 
Q 6.9375 27.203125 5.984375 29.296875 
Q 5.03125 31.390625 5.03125 34.328125 
Q 5.03125 36.921875 6.03125 39.28125 
Q 7.03125 41.65625 9.03125 43.4375 
Q 11.03125 45.21875 14.03125 46.28125 
Q 17.046875 47.359375 21.046875 47.359375 
Q 22.796875 47.359375 24.546875 47.0625 
Q 26.3125 46.78125 27.734375 46.34375 
Q 29.15625 45.90625 30.15625 45.390625 
Q 31.15625 44.875 31.65625 44.484375 
Q 32.171875 44.09375 32.34375 43.796875 
Q 32.515625 43.5 32.59375 43.140625 
Q 32.671875 42.78125 32.734375 42.234375 
Q 32.8125 41.703125 32.8125 40.921875 
Q 32.8125 40.09375 32.734375 39.484375 
Q 32.671875 38.875 32.5 38.484375 
Q 32.328125 38.09375 32.078125 37.921875 
Q 31.84375 37.75 31.546875 37.75 
Q 31.109375 37.75 30.265625 38.28125 
Q 29.4375 38.8125 28.125 39.421875 
Q 26.8125 40.046875 25.03125 40.578125 
Q 23.25 41.109375 20.953125 41.109375 
Q 18.890625 41.109375 17.328125 40.640625 
Q 15.765625 40.1875 14.765625 39.328125 
Q 13.765625 38.484375 13.25 37.3125 
Q 12.75 36.140625 12.75 34.765625 
Q 12.75 32.859375 13.71875 31.5625 
Q 14.703125 30.28125 16.265625 29.296875 
Q 17.828125 28.328125 19.828125 27.546875 
Q 21.828125 26.765625 23.90625 25.921875 
Q 25.984375 25.09375 28 24.0625 
Q 30.03125 23.046875 31.59375 21.578125 
Q 33.15625 20.125 34.109375 18.0625 
Q 35.0625 16.015625 35.0625 13.1875 
z
" id="Calibri-115"/>
      </defs>
      <use xlink:href="#Calibri-83"/>
      <use x="45.947266" xlink:href="#Calibri-99"/>
      <use x="88.232422" xlink:href="#Calibri-111"/>
      <use x="140.966797" xlink:href="#Calibri-112"/>
      <use x="193.505859" xlink:href="#Calibri-117"/>
      <use x="246.044922" xlink:href="#Calibri-115"/>
     </g>
    </g>
    <g id="patch_10">
     <path d="M 417.48 169.5025 
L 449.48 169.5025 
L 449.48 158.3025 
L 417.48 158.3025 
z
" style="fill:#f25961;fill-opacity:0.4;stroke:#f25961;stroke-linejoin:miter;stroke-opacity:0.7;"/>
    </g>
    <g id="text_19">
     <!-- Web of Science -->
     <g transform="translate(462.28 169.5025)scale(0.16 -0.16)">
      <defs>
       <path d="M 68.890625 1.859375 
Q 68.703125 1.171875 68.3125 0.75 
Q 67.921875 0.34375 67.234375 0.125 
Q 66.546875 -0.09375 65.546875 -0.1875 
Q 64.546875 -0.296875 63.09375 -0.296875 
Q 61.578125 -0.296875 60.515625 -0.1875 
Q 59.46875 -0.09375 58.78125 0.125 
Q 58.109375 0.34375 57.765625 0.75 
Q 57.421875 1.171875 57.234375 1.859375 
L 44 49.5625 
L 43.890625 49.5625 
L 31.6875 1.859375 
Q 31.546875 1.171875 31.203125 0.75 
Q 30.859375 0.34375 30.21875 0.125 
Q 29.59375 -0.09375 28.59375 -0.1875 
Q 27.59375 -0.296875 26.03125 -0.296875 
Q 24.421875 -0.296875 23.34375 -0.1875 
Q 22.265625 -0.09375 21.578125 0.125 
Q 20.90625 0.34375 20.53125 0.75 
Q 20.171875 1.171875 20.015625 1.859375 
L 3.328125 60.203125 
Q 3.03125 61.328125 3 61.953125 
Q 2.984375 62.59375 3.390625 62.9375 
Q 3.8125 63.28125 4.734375 63.375 
Q 5.671875 63.484375 7.234375 63.484375 
Q 8.734375 63.484375 9.609375 63.40625 
Q 10.5 63.328125 10.953125 63.125 
Q 11.421875 62.9375 11.59375 62.59375 
Q 11.765625 62.25 11.859375 61.71875 
L 26.078125 8.796875 
L 26.125 8.796875 
L 39.59375 61.625 
Q 39.75 62.15625 39.96875 62.515625 
Q 40.1875 62.890625 40.671875 63.078125 
Q 41.15625 63.28125 42.0625 63.375 
Q 42.96875 63.484375 44.4375 63.484375 
Q 45.796875 63.484375 46.59375 63.375 
Q 47.40625 63.28125 47.890625 63.078125 
Q 48.390625 62.890625 48.609375 62.515625 
Q 48.828125 62.15625 48.96875 61.625 
L 63.484375 8.796875 
L 63.578125 8.796875 
L 77.484375 61.671875 
Q 77.640625 62.15625 77.78125 62.515625 
Q 77.9375 62.890625 78.390625 63.078125 
Q 78.859375 63.28125 79.703125 63.375 
Q 80.5625 63.484375 81.984375 63.484375 
Q 83.453125 63.484375 84.296875 63.359375 
Q 85.15625 63.234375 85.546875 62.890625 
Q 85.9375 62.546875 85.90625 61.90625 
Q 85.890625 61.28125 85.640625 60.15625 
z
" id="Calibri-87"/>
       <path d="M 47.90625 23.78125 
Q 47.90625 18.0625 46.65625 13.5 
Q 45.40625 8.9375 42.984375 5.703125 
Q 40.578125 2.484375 37.0625 0.78125 
Q 33.546875 -0.921875 29 -0.921875 
Q 26.90625 -0.921875 25.125 -0.5 
Q 23.34375 -0.09375 21.625 0.828125 
Q 19.921875 1.765625 18.203125 3.171875 
Q 16.5 4.59375 14.59375 6.59375 
L 14.59375 1.21875 
Q 14.59375 0.828125 14.390625 0.53125 
Q 14.203125 0.25 13.765625 0.078125 
Q 13.328125 -0.09375 12.671875 -0.1875 
Q 12.015625 -0.296875 10.984375 -0.296875 
Q 10.015625 -0.296875 9.328125 -0.1875 
Q 8.640625 -0.09375 8.203125 0.078125 
Q 7.765625 0.25 7.609375 0.53125 
Q 7.46875 0.828125 7.46875 1.21875 
L 7.46875 66.453125 
Q 7.46875 66.84375 7.640625 67.140625 
Q 7.8125 67.4375 8.265625 67.625 
Q 8.734375 67.828125 9.515625 67.921875 
Q 10.296875 68.015625 11.46875 68.015625 
Q 12.703125 68.015625 13.484375 67.921875 
Q 14.265625 67.828125 14.703125 67.625 
Q 15.140625 67.4375 15.328125 67.140625 
Q 15.53125 66.84375 15.53125 66.453125 
L 15.53125 40.140625 
Q 17.484375 42.140625 19.3125 43.5 
Q 21.140625 44.875 22.890625 45.71875 
Q 24.65625 46.578125 26.40625 46.96875 
Q 28.171875 47.359375 30.125 47.359375 
Q 34.90625 47.359375 38.296875 45.453125 
Q 41.703125 43.5625 43.828125 40.359375 
Q 45.953125 37.15625 46.921875 32.859375 
Q 47.90625 28.5625 47.90625 23.78125 
z
M 39.40625 22.859375 
Q 39.40625 26.21875 38.890625 29.390625 
Q 38.375 32.5625 37.109375 35 
Q 35.84375 37.453125 33.734375 38.9375 
Q 31.640625 40.4375 28.515625 40.4375 
Q 26.953125 40.4375 25.4375 39.984375 
Q 23.921875 39.546875 22.359375 38.515625 
Q 20.796875 37.5 19.109375 35.890625 
Q 17.4375 34.28125 15.53125 31.84375 
L 15.53125 14.3125 
Q 18.84375 10.25 21.875 8.125 
Q 24.90625 6 28.171875 6 
Q 31.203125 6 33.34375 7.46875 
Q 35.5 8.9375 36.84375 11.34375 
Q 38.1875 13.765625 38.796875 16.765625 
Q 39.40625 19.78125 39.40625 22.859375 
z
" id="Calibri-98"/>
       <path d="M 31.546875 63.234375 
Q 31.546875 62.3125 31.4375 61.75 
Q 31.34375 61.1875 31.21875 60.84375 
Q 31.109375 60.5 30.90625 60.375 
Q 30.71875 60.25 30.421875 60.25 
Q 30.078125 60.25 29.5625 60.46875 
Q 29.046875 60.6875 28.3125 60.953125 
Q 27.59375 61.234375 26.59375 61.453125 
Q 25.59375 61.671875 24.265625 61.671875 
Q 22.46875 61.671875 21.1875 61.078125 
Q 19.921875 60.5 19.140625 59.25 
Q 18.359375 58.015625 18.015625 56.03125 
Q 17.671875 54.046875 17.671875 51.21875 
L 17.671875 46.4375 
L 27.484375 46.4375 
Q 27.875 46.4375 28.140625 46.265625 
Q 28.421875 46.09375 28.640625 45.671875 
Q 28.859375 45.265625 28.984375 44.625 
Q 29.109375 44 29.109375 43.0625 
Q 29.109375 41.3125 28.65625 40.53125 
Q 28.21875 39.75 27.484375 39.75 
L 17.671875 39.75 
L 17.671875 1.21875 
Q 17.671875 0.828125 17.46875 0.5625 
Q 17.28125 0.296875 16.8125 0.09375 
Q 16.359375 -0.09375 15.578125 -0.1875 
Q 14.796875 -0.296875 13.625 -0.296875 
Q 12.453125 -0.296875 11.671875 -0.1875 
Q 10.890625 -0.09375 10.421875 0.09375 
Q 9.96875 0.296875 9.765625 0.5625 
Q 9.578125 0.828125 9.578125 1.21875 
L 9.578125 39.75 
L 3.375 39.75 
Q 2.59375 39.75 2.203125 40.53125 
Q 1.8125 41.3125 1.8125 43.0625 
Q 1.8125 44 1.90625 44.625 
Q 2 45.265625 2.1875 45.671875 
Q 2.390625 46.09375 2.6875 46.265625 
Q 2.984375 46.4375 3.375 46.4375 
L 9.578125 46.4375 
L 9.578125 50.984375 
Q 9.578125 55.5625 10.421875 58.859375 
Q 11.28125 62.15625 13.03125 64.25 
Q 14.796875 66.359375 17.453125 67.359375 
Q 20.125 68.359375 23.734375 68.359375 
Q 25.4375 68.359375 27.046875 68.03125 
Q 28.65625 67.71875 29.53125 67.359375 
Q 30.421875 67 30.703125 66.703125 
Q 31 66.40625 31.1875 65.9375 
Q 31.390625 65.484375 31.46875 64.8125 
Q 31.546875 64.15625 31.546875 63.234375 
z
" id="Calibri-102"/>
       <path d="M 15.53125 1.21875 
Q 15.53125 0.828125 15.328125 0.5625 
Q 15.140625 0.296875 14.703125 0.09375 
Q 14.265625 -0.09375 13.484375 -0.1875 
Q 12.703125 -0.296875 11.46875 -0.296875 
Q 10.296875 -0.296875 9.515625 -0.1875 
Q 8.734375 -0.09375 8.265625 0.09375 
Q 7.8125 0.296875 7.640625 0.5625 
Q 7.46875 0.828125 7.46875 1.21875 
L 7.46875 45.171875 
Q 7.46875 45.515625 7.640625 45.796875 
Q 7.8125 46.09375 8.265625 46.28125 
Q 8.734375 46.484375 9.515625 46.578125 
Q 10.296875 46.6875 11.46875 46.6875 
Q 12.703125 46.6875 13.484375 46.578125 
Q 14.265625 46.484375 14.703125 46.28125 
Q 15.140625 46.09375 15.328125 45.796875 
Q 15.53125 45.515625 15.53125 45.171875 
z
M 16.453125 60.015625 
Q 16.453125 57.171875 15.375 56.140625 
Q 14.3125 55.125 11.421875 55.125 
Q 8.59375 55.125 7.546875 56.125 
Q 6.5 57.125 6.5 59.90625 
Q 6.5 62.75 7.5625 63.765625 
Q 8.640625 64.796875 11.53125 64.796875 
Q 14.359375 64.796875 15.40625 63.796875 
Q 16.453125 62.796875 16.453125 60.015625 
z
" id="Calibri-105"/>
       <path d="M 45.3125 1.21875 
Q 45.3125 0.828125 45.109375 0.5625 
Q 44.921875 0.296875 44.484375 0.09375 
Q 44.046875 -0.09375 43.265625 -0.1875 
Q 42.484375 -0.296875 41.3125 -0.296875 
Q 40.09375 -0.296875 39.3125 -0.1875 
Q 38.53125 -0.09375 38.078125 0.09375 
Q 37.640625 0.296875 37.4375 0.5625 
Q 37.25 0.828125 37.25 1.21875 
L 37.25 26.953125 
Q 37.25 30.71875 36.65625 33 
Q 36.078125 35.296875 34.953125 36.953125 
Q 33.84375 38.625 32.0625 39.5 
Q 30.28125 40.375 27.9375 40.375 
Q 24.90625 40.375 21.875 38.21875 
Q 18.84375 36.078125 15.53125 31.9375 
L 15.53125 1.21875 
Q 15.53125 0.828125 15.328125 0.5625 
Q 15.140625 0.296875 14.703125 0.09375 
Q 14.265625 -0.09375 13.484375 -0.1875 
Q 12.703125 -0.296875 11.46875 -0.296875 
Q 10.296875 -0.296875 9.515625 -0.1875 
Q 8.734375 -0.09375 8.265625 0.09375 
Q 7.8125 0.296875 7.640625 0.5625 
Q 7.46875 0.828125 7.46875 1.21875 
L 7.46875 45.171875 
Q 7.46875 45.5625 7.609375 45.828125 
Q 7.765625 46.09375 8.203125 46.3125 
Q 8.640625 46.53125 9.328125 46.609375 
Q 10.015625 46.6875 11.140625 46.6875 
Q 12.203125 46.6875 12.90625 46.609375 
Q 13.625 46.53125 14.015625 46.3125 
Q 14.40625 46.09375 14.578125 45.828125 
Q 14.75 45.5625 14.75 45.171875 
L 14.75 39.359375 
Q 18.453125 43.5 22.140625 45.421875 
Q 25.828125 47.359375 29.59375 47.359375 
Q 33.984375 47.359375 36.984375 45.875 
Q 39.984375 44.390625 41.84375 41.890625 
Q 43.703125 39.40625 44.5 36.0625 
Q 45.3125 32.71875 45.3125 28.03125 
z
" id="Calibri-110"/>
      </defs>
      <use xlink:href="#Calibri-87"/>
      <use x="88.964844" xlink:href="#Calibri-101"/>
      <use x="138.720703" xlink:href="#Calibri-98"/>
      <use x="191.259766" xlink:href="#Calibri-32"/>
      <use x="213.867188" xlink:href="#Calibri-111"/>
      <use x="266.601562" xlink:href="#Calibri-102"/>
      <use x="297.119141" xlink:href="#Calibri-32"/>
      <use x="319.726562" xlink:href="#Calibri-83"/>
      <use x="365.673828" xlink:href="#Calibri-99"/>
      <use x="407.958984" xlink:href="#Calibri-105"/>
      <use x="430.908203" xlink:href="#Calibri-101"/>
      <use x="480.664062" xlink:href="#Calibri-110"/>
      <use x="533.203125" xlink:href="#Calibri-99"/>
      <use x="575.488281" xlink:href="#Calibri-101"/>
     </g>
    </g>
   </g>
  </g>
 </g>
 <defs>
  <clipPath id="pd31690bcad">
   <rect height="489.24" width="489.24" x="87.48" y="77.76"/>
  </clipPath>
 </defs>
</svg>
